# xmcd
#
# Track frame offsets:
#	150
#	31499
#	52165
#	70505
#	85496
#	101908
#	116805
#	131797
#	147725
#	167457
#	185580
#	207133
#	239478
#
# Disc length: 4289 seconds
#
# Revision: 0
# Processed by: cddbd v1.4b42PL1 Copyright (c) Steve Scherf et al.
# Submitted via: EasyCDDAExtractor 4.5.0.1
#
DISCID=c910bf0d
DTITLE=Isaac Hayes - Greatest Hit Singles
DYEAR=1999
DGENRE=Soul
TTITLE0=By the time I get to phoenix
TTITLE1=Walk on by
TTITLE2=I stand accused
TTITLE3=The look of love
TTITLE4=Never can say good bye
TTITLE5=Theme from "Shaft"
TTITLE6=Do your thing
TTITLE7=Let's stay together
TTITLE8=Aint that loving you (with David Porter)
TTITLE9=Theme from "The Men"
TTITLE10=(If loving you is wrong) I don't want to be right
TTITLE11=Joy (Part 1)
TTITLE12=Multimedia Track
EXTD=Made in Germany\nMarketed and distributed by\nZYX Music
EXTT0=
EXTT1=
EXTT2=
EXTT3=
EXTT4=
EXTT5=
EXTT6=
EXTT7=
EXTT8=
EXTT9=
EXTT10=
EXTT11=
EXTT12=
PLAYORDER=
